<svg width="37" height="33" viewBox="0 0 37 33" fill="none" xmlns="http://www.w3.org/2000/svg">
<path d="M33.1199 3.95873C31.2095 2.06799 28.6861 0.922337 26.0053 0.728499C23.3244 0.534661 20.6625 1.3054 18.4999 2.90164C16.2203 1.20608 13.3829 0.437227 10.5591 0.749919C7.73532 1.06261 5.13488 2.43362 3.28146 4.58686C1.42804 6.7401 0.459314 9.51562 0.570359 12.3545C0.681405 15.1934 1.86397 17.8848 3.87992 19.8866L14.6299 30.7262C15.6377 31.7328 17.0039 32.2982 18.4283 32.2982C19.8526 32.2982 21.2188 31.7328 22.2266 30.7262L32.9766 19.8866C34.0353 18.8522 34.8792 17.6188 35.4597 16.2571C36.0403 14.8955 36.346 13.4326 36.3593 11.9525C36.3726 10.4723 36.0933 9.00416 35.5374 7.63232C34.9814 6.26048 34.1599 5.01204 33.1199 3.95873ZM30.5937 17.3246L19.8437 28.0746C19.6771 28.2425 19.479 28.3758 19.2606 28.4667C19.0423 28.5577 18.8081 28.6045 18.5716 28.6045C18.3351 28.6045 18.1009 28.5577 17.8826 28.4667C17.6642 28.3758 17.4661 28.2425 17.2995 28.0746L6.54951 17.3246C5.14441 15.8883 4.3576 13.9589 4.3576 11.9496C4.3576 9.94027 5.14441 8.01086 6.54951 6.57456C7.98133 5.16091 9.91242 4.36825 11.9245 4.36825C13.9366 4.36825 15.8677 5.16091 17.2995 6.57456C17.4661 6.74249 17.6642 6.87578 17.8826 6.96674C18.1009 7.0577 18.3351 7.10453 18.5716 7.10453C18.8081 7.10453 19.0423 7.0577 19.2606 6.96674C19.479 6.87578 19.6771 6.74249 19.8437 6.57456C21.3142 5.4044 23.164 4.81644 25.0403 4.92281C26.9166 5.02918 28.6881 5.82244 30.0169 7.1513C31.3458 8.48016 32.1391 10.2517 32.2454 12.1279C32.3518 14.0042 31.7638 15.854 30.5937 17.3246Z" fill="black"/>
</svg>
