<svg width="37" height="30" viewBox="0 0 37 30" fill="none" xmlns="http://www.w3.org/2000/svg">
<path d="M31.45 0H5.55C4.07805 0 2.66638 0.592632 1.62556 1.64752C0.584731 2.70242 0 4.13316 0 5.625V24.375C0 25.8668 0.584731 27.2976 1.62556 28.3525C2.66638 29.4074 4.07805 30 5.55 30H31.45C32.922 30 34.3336 29.4074 35.3744 28.3525C36.4153 27.2976 37 25.8668 37 24.375V5.625C37 4.13316 36.4153 2.70242 35.3744 1.64752C34.3336 0.592632 32.922 0 31.45 0ZM5.55 3.75H31.45C31.9407 3.75 32.4112 3.94754 32.7581 4.29918C33.1051 4.65081 33.3 5.12772 33.3 5.625L18.5 14.775L3.7 5.625C3.7 5.12772 3.89491 4.65081 4.24185 4.29918C4.5888 3.94754 5.05935 3.75 5.55 3.75ZM33.3 24.375C33.3 24.8723 33.1051 25.3492 32.7581 25.7008C32.4112 26.0525 31.9407 26.25 31.45 26.25H5.55C5.05935 26.25 4.5888 26.0525 4.24185 25.7008C3.89491 25.3492 3.7 24.8723 3.7 24.375V9.9L17.538 18.4688C17.8192 18.6333 18.1383 18.72 18.463 18.72C18.7877 18.72 19.1068 18.6333 19.388 18.4688L33.3 9.9V24.375Z" fill="black"/>
</svg>
