<svg width="4" height="6" viewBox="0 0 4 6" fill="none" xmlns="http://www.w3.org/2000/svg">
<path d="M0.524997 3.29602L2.88333 5.65019C2.92207 5.68924 2.96815 5.72024 3.01892 5.74139C3.0697 5.76255 3.12416 5.77344 3.17916 5.77344C3.23417 5.77344 3.28863 5.76255 3.3394 5.74139C3.39018 5.72024 3.43626 5.68924 3.475 5.65019C3.5526 5.57212 3.59616 5.46652 3.59616 5.35644C3.59616 5.24636 3.5526 5.14076 3.475 5.06269L1.4125 2.97935L3.475 0.916855C3.5526 0.838787 3.59616 0.733182 3.59616 0.623105C3.59616 0.513027 3.5526 0.407423 3.475 0.329355C3.43641 0.289985 3.39039 0.258664 3.33961 0.237207C3.28883 0.21575 3.23429 0.204584 3.17916 0.204355C3.12404 0.204584 3.0695 0.21575 3.01872 0.237207C2.96794 0.258664 2.92192 0.289985 2.88333 0.329355L0.524997 2.68352C0.482703 2.72254 0.44895 2.76989 0.425863 2.8226C0.402777 2.87531 0.390859 2.93223 0.390859 2.98977C0.390859 3.04731 0.402777 3.10423 0.425864 3.15694C0.44895 3.20965 0.482703 3.257 0.524997 3.29602Z" fill="black"/>
</svg>
