<svg width="4" height="6" viewBox="0 0 4 6" fill="none" xmlns="http://www.w3.org/2000/svg">
<path d="M3.475 2.70398L1.11667 0.349812C1.07793 0.310758 1.03185 0.279761 0.981074 0.258607C0.930299 0.237454 0.875838 0.226562 0.820833 0.226562C0.765828 0.226562 0.711368 0.237454 0.660593 0.258607C0.609818 0.279761 0.563735 0.310758 0.525 0.349812C0.447395 0.427879 0.403836 0.533484 0.403836 0.643562C0.403836 0.753639 0.447395 0.859244 0.525 0.937312L2.5875 3.02065L0.525 5.08315C0.447395 5.16121 0.403836 5.26682 0.403836 5.3769C0.403836 5.48697 0.447395 5.59258 0.525 5.67065C0.563589 5.71002 0.609608 5.74134 0.66039 5.76279C0.711171 5.78425 0.765705 5.79542 0.820833 5.79564C0.875961 5.79542 0.930496 5.78425 0.981277 5.76279C1.03206 5.74134 1.07808 5.71002 1.11667 5.67065L3.475 3.31648C3.51729 3.27746 3.55105 3.23011 3.57413 3.1774C3.59722 3.12469 3.60914 3.06777 3.60914 3.01023C3.60914 2.95269 3.59722 2.89577 3.57413 2.84306C3.55105 2.79035 3.51729 2.743 3.475 2.70398Z" fill="black"/>
</svg>
