<svg width="11" height="7" viewBox="0 0 11 7" fill="none" xmlns="http://www.w3.org/2000/svg">
<path d="M10.4871 4.91275L6.19707 0.672751C6.10411 0.579023 5.99351 0.504629 5.87165 0.45386C5.74979 0.403092 5.61908 0.376953 5.48707 0.376953C5.35506 0.376953 5.22435 0.403092 5.10249 0.45386C4.98063 0.504629 4.87003 0.579023 4.77707 0.672751L0.53707 4.91275C0.443342 5.00571 0.368947 5.11632 0.318179 5.23817C0.26741 5.36003 0.241272 5.49074 0.241272 5.62275C0.241272 5.75476 0.26741 5.88547 0.318179 6.00733C0.368947 6.12919 0.443342 6.23979 0.53707 6.33275C0.724433 6.519 0.977884 6.62354 1.24207 6.62354C1.50626 6.62354 1.75971 6.519 1.94707 6.33275L5.48707 2.79275L9.02707 6.33275C9.21333 6.5175 9.46473 6.62165 9.72707 6.62275C9.85868 6.62351 9.98914 6.59829 10.111 6.54852C10.2328 6.49876 10.3436 6.42543 10.4371 6.33275C10.5341 6.24313 10.6125 6.13517 10.6676 6.01509C10.7227 5.89502 10.7535 5.76521 10.7581 5.63318C10.7628 5.50114 10.7412 5.36949 10.6947 5.24584C10.6482 5.12218 10.5776 5.00898 10.4871 4.91275Z" fill="black"/>
</svg>
