<svg width="11" height="7" viewBox="0 0 11 7" fill="none" xmlns="http://www.w3.org/2000/svg">
<path d="M0.51293 2.08774L4.80293 6.32774C4.89589 6.42147 5.00649 6.49586 5.12835 6.54663C5.25021 6.5974 5.38092 6.62354 5.51293 6.62354C5.64494 6.62354 5.77565 6.5974 5.89751 6.54663C6.01937 6.49586 6.12997 6.42147 6.22293 6.32774L10.4629 2.08774C10.5567 1.99477 10.6311 1.88417 10.6818 1.76231C10.7326 1.64045 10.7587 1.50975 10.7587 1.37774C10.7587 1.24573 10.7326 1.11502 10.6818 0.99316C10.6311 0.871301 10.5567 0.7607 10.4629 0.667737C10.2756 0.481486 10.0221 0.376945 9.75793 0.376945C9.49374 0.376945 9.24029 0.481486 9.05293 0.667737L5.51293 4.20774L1.97293 0.667738C1.78667 0.482993 1.53527 0.378843 1.27293 0.377738C1.14132 0.376977 1.01086 0.402202 0.889022 0.451966C0.767185 0.501731 0.656369 0.575056 0.562929 0.667738C0.465854 0.757356 0.3875 0.865322 0.332393 0.985397C0.277286 1.10547 0.24652 1.23528 0.24187 1.36731C0.237221 1.49935 0.258782 1.631 0.305307 1.75465C0.351832 1.8783 0.422398 1.99151 0.51293 2.08774Z" fill="black"/>
</svg>
