<svg width="21" height="20" viewBox="0 0 21 20" fill="none" xmlns="http://www.w3.org/2000/svg">
<path d="M19.1598 2.61006C18.0981 1.54806 16.6905 0.902384 15.193 0.790439C13.6955 0.678494 12.2076 1.10772 10.9998 2.00006C9.72744 1.0537 8.14378 0.624569 6.56771 0.799095C4.99164 0.973621 3.54023 1.73884 2.50576 2.94064C1.47129 4.14245 0.93061 5.69158 0.992588 7.27607C1.05457 8.86057 1.71461 10.3627 2.83979 11.4801L10.2898 18.9301C10.3828 19.0238 10.4934 19.0982 10.6152 19.1489C10.7371 19.1997 10.8678 19.2259 10.9998 19.2259C11.1318 19.2259 11.2625 19.1997 11.3844 19.1489C11.5062 19.0982 11.6168 19.0238 11.7098 18.9301L19.1598 11.4801C19.7424 10.8978 20.2047 10.2064 20.52 9.44542C20.8354 8.68445 20.9977 7.86879 20.9977 7.04506C20.9977 6.22133 20.8354 5.40567 20.52 4.64469C20.2047 3.88371 19.7424 3.19233 19.1598 2.61006Z" fill="#EF93B2"/>
</svg>
