<svg width="287" height="27" viewBox="0 0 287 27" fill="none" xmlns="http://www.w3.org/2000/svg">
<circle cx="11.8334" cy="12.5017" r="9.16006" fill="#F8B600"/>
<circle cx="85.8466" cy="12.5017" r="9.16006" fill="#00BB6A"/>
<path d="M13.0146 0C14.8202 0 16.5086 0.351746 18.0798 1.05524C19.6743 1.73528 21.0579 2.67327 22.2304 3.86921C23.4029 5.0417 24.3291 6.41351 25.0092 7.98464C25.6892 9.55577 26.0292 11.2324 26.0292 13.0146C26.0292 14.8202 25.6775 16.5204 24.974 18.1149C24.2939 19.6861 23.356 21.0579 22.16 22.2304C20.9875 23.4029 19.6157 24.3291 18.0446 25.0092C16.4735 25.6892 14.7968 26.0292 13.0146 26.0292C11.209 26.0292 9.50888 25.6892 7.91429 25.0092C6.34316 24.3057 4.97135 23.3677 3.79886 22.1952C2.62637 20.9993 1.70011 19.6157 1.02006 18.0446C0.340021 16.4735 0 14.7968 0 13.0146C0 11.209 0.340021 9.5206 1.02006 7.94947C1.72356 6.35488 2.66155 4.97135 3.83404 3.79886C5.00652 2.62637 6.37833 1.70011 7.94947 1.02006C9.54405 0.340021 11.2324 0 13.0146 0ZM13.0146 21.14C14.0699 21.14 15.0665 20.9172 16.0045 20.4716C16.9424 20.0261 17.7632 19.4281 18.4667 18.6777C19.1702 17.9273 19.7212 17.0597 20.1199 16.0748C20.5185 15.0899 20.7179 14.0699 20.7179 13.0146C20.7179 11.9594 20.5185 10.9393 20.1199 9.95442C19.7212 8.96953 19.1702 8.11362 18.4667 7.38667C17.7632 6.63628 16.9424 6.03831 16.0045 5.59277C15.0665 5.14722 14.0699 4.92445 13.0146 4.92445C11.9594 4.92445 10.9628 5.14722 10.0248 5.59277C9.08678 6.03831 8.26604 6.63628 7.56255 7.38667C6.85905 8.11362 6.30798 8.96953 5.90934 9.95442C5.51069 10.9393 5.31137 11.9594 5.31137 13.0146C5.31137 14.0699 5.51069 15.0899 5.90934 16.0748C6.30798 17.0597 6.85905 17.9273 7.56255 18.6777C8.26604 19.4281 9.08678 20.0261 10.0248 20.4716C10.9628 20.9172 11.9594 21.14 13.0146 21.14Z" fill="black"/>
<path d="M45.6553 25.3257L35.1733 10.7283V25.3257H29.8971V0.703492H34.7512L45.2684 15.3361V0.703492H50.5446V25.3257H45.6553Z" fill="black"/>
<path d="M70.7997 20.4013V25.3257H55.2173V0.703492H70.5886V5.62794H60.4231V10.5524H68.056V15.4768H60.4231V20.4013H70.7997Z" fill="black"/>
<path d="M85.9401 0C87.7458 0 89.4342 0.351746 91.0053 1.05524C92.5999 1.73528 93.9834 2.67327 95.1559 3.86921C96.3284 5.0417 97.2547 6.41351 97.9347 7.98464C98.6147 9.55577 98.9548 11.2324 98.9548 13.0146C98.9548 14.8202 98.603 16.5204 97.8995 18.1149C97.2195 19.6861 96.2815 21.0579 95.0856 22.2304C93.9131 23.4029 92.5413 24.3291 90.9701 25.0092C89.399 25.6892 87.7223 26.0292 85.9401 26.0292C84.1345 26.0292 82.4344 25.6892 80.8398 25.0092C79.2687 24.3057 77.8969 23.3677 76.7244 22.1952C75.5519 20.9993 74.6256 19.6157 73.9456 18.0446C73.2655 16.4735 72.9255 14.7968 72.9255 13.0146C72.9255 11.209 73.2655 9.5206 73.9456 7.94947C74.6491 6.35488 75.5871 4.97135 76.7596 3.79886C77.9321 2.62637 79.3039 1.70011 80.875 1.02006C82.4696 0.340021 84.158 0 85.9401 0ZM85.9401 21.14C86.9954 21.14 87.992 20.9172 88.93 20.4716C89.868 20.0261 90.6887 19.4281 91.3922 18.6777C92.0957 17.9273 92.6468 17.0597 93.0454 16.0748C93.4441 15.0899 93.6434 14.0699 93.6434 13.0146C93.6434 11.9594 93.4441 10.9393 93.0454 9.95442C92.6468 8.96953 92.0957 8.11362 91.3922 7.38667C90.6887 6.63628 89.868 6.03831 88.93 5.59277C87.992 5.14722 86.9954 4.92445 85.9401 4.92445C84.8849 4.92445 83.8883 5.14722 82.9503 5.59277C82.0123 6.03831 81.1916 6.63628 80.4881 7.38667C79.7846 8.11362 79.2335 8.96953 78.8349 9.95442C78.4362 10.9393 78.2369 11.9594 78.2369 13.0146C78.2369 14.0699 78.4362 15.0899 78.8349 16.0748C79.2335 17.0597 79.7846 17.9273 80.4881 18.6777C81.1916 19.4281 82.0123 20.0261 82.9503 20.4716C83.8883 20.9172 84.8849 21.14 85.9401 21.14Z" fill="black"/>
<path d="M108.204 5.62794V11.2207H116.259V16.321H108.204V25.3257H102.998V0.703492H118.827V5.62794H108.204Z" fill="black"/>
<path d="M127.818 5.62794V11.2207H135.873V16.321H127.818V25.3257H122.612V0.703492H138.441V5.62794H127.818Z" fill="black"/>
<path d="M167.942 25.3257L157.46 10.7283V25.3257H152.184V0.703492H157.038L167.555 15.3361V0.703492H172.831V25.3257H167.942Z" fill="black"/>
<path d="M192.524 21.1751H183.308L181.971 25.3257H176.273L184.715 0.703492H191.152L199.559 25.3257H193.895L192.524 21.1751ZM190.906 16.2507L187.916 7.10528L184.926 16.2507H190.906Z" fill="black"/>
<path d="M218.708 5.62794H211.568V25.3257H206.292V5.62794H199.116V0.703492H218.708V5.62794Z" fill="black"/>
<path d="M242.557 15.9341C242.557 17.3176 242.287 18.6191 241.748 19.8385C241.232 21.0579 240.516 22.1248 239.602 23.0394C238.711 23.9539 237.644 24.6809 236.401 25.2202C235.182 25.7596 233.868 26.0292 232.461 26.0292C231.078 26.0292 229.765 25.7713 228.522 25.2554C227.302 24.716 226.236 24.0008 225.321 23.1097C224.406 22.1952 223.68 21.1282 223.14 19.9088C222.601 18.666 222.331 17.3411 222.331 15.9341V0.703492H227.607V15.8989C227.607 16.579 227.736 17.2356 227.994 17.8687C228.252 18.4784 228.592 19.0295 229.014 19.5219C229.46 20.0144 229.976 20.413 230.562 20.7179C231.148 20.9993 231.781 21.14 232.461 21.14C233.118 21.14 233.739 20.9993 234.326 20.7179C234.912 20.413 235.428 20.0144 235.873 19.5219C236.319 19.0295 236.659 18.4784 236.893 17.8687C237.151 17.2356 237.28 16.579 237.28 15.8989V0.703492H242.557V15.9341Z" fill="black"/>
<path d="M261.375 25.3257L256.38 17.728H252.511V25.3257H247.235V0.703492H257.823C258.972 0.703492 260.062 0.926265 261.094 1.37181C262.126 1.81735 263.028 2.42705 263.802 3.20089C264.576 3.95128 265.186 4.84237 265.631 5.87416C266.1 6.90595 266.335 8.01982 266.335 9.21575C266.335 10.8338 265.925 12.3111 265.104 13.6478C264.283 14.9609 263.204 15.981 261.868 16.708L267.496 25.3257H261.375ZM257.26 12.8036C257.752 12.8036 258.21 12.7098 258.632 12.5222C259.077 12.3346 259.452 12.0766 259.757 11.7483C260.086 11.42 260.343 11.0448 260.531 10.6227C260.719 10.1772 260.812 9.7082 260.812 9.21575C260.812 8.72331 260.719 8.26604 260.531 7.84394C260.343 7.3984 260.086 7.01148 259.757 6.68318C259.452 6.35488 259.077 6.09694 258.632 5.90934C258.21 5.72174 257.752 5.62794 257.26 5.62794H252.511V12.8036H257.26Z" fill="black"/>
<path d="M287 20.4013V25.3257H271.418V0.703492H286.789V5.62794H276.623V10.5524H284.256V15.4768H276.623V20.4013H287Z" fill="black"/>
<path d="M13.0146 0C14.8202 0 16.5086 0.351746 18.0798 1.05524C19.6743 1.73528 21.0579 2.67327 22.2304 3.86921C23.4029 5.0417 24.3291 6.41351 25.0092 7.98464C25.6892 9.55578 26.0292 11.2324 26.0292 13.0146C26.0292 14.8202 25.6775 16.5204 24.974 18.1149C24.2939 19.6861 23.356 21.0579 22.16 22.2304C20.9875 23.4029 19.6157 24.3291 18.0446 25.0092C16.4735 25.6892 14.7968 26.0292 13.0146 26.0292C11.209 26.0292 9.50888 25.6892 7.91429 25.0092C6.34316 24.3057 4.97135 23.3677 3.79886 22.1952C2.62637 20.9993 1.70011 19.6157 1.02006 18.0446C0.340021 16.4735 0 14.7968 0 13.0146C0 11.209 0.340021 9.5206 1.02006 7.94947C1.72356 6.35488 2.66155 4.97135 3.83404 3.79886C5.00652 2.62637 6.37833 1.70011 7.94947 1.02006C9.54405 0.340021 11.2324 0 13.0146 0ZM13.0146 21.14C14.0699 21.14 15.0665 20.9172 16.0045 20.4716C16.9424 20.0261 17.7632 19.4281 18.4667 18.6777C19.1702 17.9273 19.7212 17.0597 20.1199 16.0748C20.5185 15.0899 20.7179 14.0699 20.7179 13.0146C20.7179 11.9594 20.5185 10.9393 20.1199 9.95442C19.7212 8.96953 19.1702 8.11361 18.4667 7.38667C17.7632 6.63628 16.9424 6.03831 16.0045 5.59277C15.0665 5.14722 14.0699 4.92445 13.0146 4.92445C11.9594 4.92445 10.9628 5.14722 10.0248 5.59277C9.08678 6.03831 8.26604 6.63628 7.56255 7.38667C6.85905 8.11361 6.30798 8.96953 5.90934 9.95442C5.51069 10.9393 5.31137 11.9594 5.31137 13.0146C5.31137 14.0699 5.51069 15.0899 5.90934 16.0748C6.30798 17.0597 6.85905 17.9273 7.56255 18.6777C8.26604 19.4281 9.08678 20.0261 10.0248 20.4716C10.9628 20.9172 11.9594 21.14 13.0146 21.14Z" fill="black"/>
<path d="M45.6553 25.3257L35.1733 10.7283V25.3257H29.8971V0.703492H34.7512L45.2684 15.3361V0.703492H50.5446V25.3257H45.6553Z" fill="black"/>
<path d="M70.7997 20.4013V25.3257H55.2173V0.703492H70.5886V5.62794H60.4231V10.5524H68.056V15.4768H60.4231V20.4013H70.7997Z" fill="black"/>
<path d="M85.9401 0C87.7458 0 89.4342 0.351746 91.0053 1.05524C92.5999 1.73528 93.9834 2.67327 95.1559 3.86921C96.3284 5.0417 97.2546 6.41351 97.9347 7.98464C98.6147 9.55578 98.9548 11.2324 98.9548 13.0146C98.9548 14.8202 98.603 16.5204 97.8995 18.1149C97.2195 19.6861 96.2815 21.0579 95.0855 22.2304C93.9131 23.4029 92.5412 24.3291 90.9701 25.0092C89.399 25.6892 87.7223 26.0292 85.9401 26.0292C84.1345 26.0292 82.4344 25.6892 80.8398 25.0092C79.2687 24.3057 77.8969 23.3677 76.7244 22.1952C75.5519 20.9993 74.6256 19.6157 73.9456 18.0446C73.2656 16.4735 72.9255 14.7968 72.9255 13.0146C72.9255 11.209 73.2656 9.5206 73.9456 7.94947C74.6491 6.35488 75.5871 4.97135 76.7596 3.79886C77.9321 2.62637 79.3039 1.70011 80.875 1.02006C82.4696 0.340021 84.158 0 85.9401 0ZM85.9401 21.14C86.9954 21.14 87.992 20.9172 88.93 20.4716C89.868 20.0261 90.6887 19.4281 91.3922 18.6777C92.0957 17.9273 92.6468 17.0597 93.0454 16.0748C93.4441 15.0899 93.6434 14.0699 93.6434 13.0146C93.6434 11.9594 93.4441 10.9393 93.0454 9.95442C92.6468 8.96953 92.0957 8.11361 91.3922 7.38667C90.6887 6.63628 89.868 6.03831 88.93 5.59277C87.992 5.14722 86.9954 4.92445 85.9401 4.92445C84.8849 4.92445 83.8883 5.14722 82.9503 5.59277C82.0123 6.03831 81.1916 6.63628 80.4881 7.38667C79.7846 8.11361 79.2335 8.96953 78.8349 9.95442C78.4362 10.9393 78.2369 11.9594 78.2369 13.0146C78.2369 14.0699 78.4362 15.0899 78.8349 16.0748C79.2335 17.0597 79.7846 17.9273 80.4881 18.6777C81.1916 19.4281 82.0123 20.0261 82.9503 20.4716C83.8883 20.9172 84.8849 21.14 85.9401 21.14Z" fill="black"/>
<path d="M108.204 5.62794V11.2207H116.259V16.321H108.204V25.3257H102.998V0.703492H118.827V5.62794H108.204Z" fill="black"/>
<path d="M127.818 5.62794V11.2207H135.873V16.321H127.818V25.3257H122.612V0.703492H138.441V5.62794H127.818Z" fill="black"/>
<path d="M167.942 25.3257L157.46 10.7283V25.3257H152.184V0.703492H157.038L167.555 15.3361V0.703492H172.831V25.3257H167.942Z" fill="black"/>
<path d="M192.524 21.1751H183.308L181.971 25.3257H176.273L184.715 0.703492H191.152L199.559 25.3257H193.895L192.524 21.1751ZM190.906 16.2507L187.916 7.10528L184.926 16.2507H190.906Z" fill="black"/>
<path d="M218.708 5.62794H211.568V25.3257H206.292V5.62794H199.116V0.703492H218.708V5.62794Z" fill="black"/>
<path d="M242.557 15.9341C242.557 17.3176 242.287 18.6191 241.748 19.8385C241.232 21.0579 240.516 22.1248 239.602 23.0394C238.711 23.9539 237.644 24.6809 236.401 25.2202C235.182 25.7596 233.868 26.0292 232.461 26.0292C231.078 26.0292 229.765 25.7713 228.522 25.2554C227.303 24.716 226.236 24.0008 225.321 23.1097C224.406 22.1952 223.68 21.1282 223.14 19.9088C222.601 18.666 222.331 17.3411 222.331 15.9341V0.703492H227.607V15.8989C227.607 16.579 227.736 17.2356 227.994 17.8687C228.252 18.4784 228.592 19.0295 229.014 19.5219C229.46 20.0144 229.976 20.413 230.562 20.7179C231.148 20.9993 231.781 21.14 232.461 21.14C233.118 21.14 233.739 20.9993 234.326 20.7179C234.912 20.413 235.428 20.0144 235.873 19.5219C236.319 19.0295 236.659 18.4784 236.893 17.8687C237.151 17.2356 237.28 16.579 237.28 15.8989V0.703492H242.557V15.9341Z" fill="black"/>
<path d="M261.375 25.3257L256.38 17.728H252.511V25.3257H247.235V0.703492H257.823C258.972 0.703492 260.062 0.926265 261.094 1.37181C262.126 1.81735 263.028 2.42705 263.802 3.20089C264.576 3.95128 265.186 4.84238 265.631 5.87416C266.1 6.90595 266.335 8.01982 266.335 9.21575C266.335 10.8338 265.925 12.3111 265.104 13.6478C264.283 14.9609 263.204 15.981 261.868 16.708L267.496 25.3257H261.375ZM257.26 12.8036C257.752 12.8036 258.21 12.7098 258.632 12.5222C259.077 12.3346 259.452 12.0766 259.757 11.7483C260.086 11.42 260.343 11.0448 260.531 10.6227C260.719 10.1772 260.812 9.7082 260.812 9.21575C260.812 8.72331 260.719 8.26604 260.531 7.84394C260.343 7.3984 260.086 7.01148 259.757 6.68318C259.452 6.35488 259.077 6.09694 258.632 5.90934C258.21 5.72174 257.752 5.62794 257.26 5.62794H252.511V12.8036H257.26Z" fill="black"/>
<path d="M287 20.4013V25.3257H271.418V0.703492H286.789V5.62794H276.624V10.5524H284.256V15.4768H276.624V20.4013H287Z" fill="black"/>
</svg>
